# xmcd
#
# Track frame offsets:
#	150
#	28642
#	48150
#	72662
#	103495
#	122398
#	145590
#	162683
#	186027
#	199200
#	220671
#	238326
#	256439
#	277614
#	302376
#	324609
#
# Disc length: 4547 seconds
#
# Revision: 0
# Processed by: cddbd v1.5.1PL2 Copyright (c) Steve Scherf et al.
# Submitted via: audiograbber 1.81.02
#
DISCID=ea11c110
DTITLE=Various Artist - 4x4 V1
DYEAR=2006
DGENRE=Christian Rock
TTITLE0=You Chose The Cross ( Lost In Wonder )
TTITLE1=Worship God
TTITLE2=The King Of Love (  The King Has Come )
TTITLE3=Jesus All For Jesus
TTITLE4=You Gave Your Only Son ( Praise You )
TTITLE5=Jesus Christ ( Perfect Love )
TTITLE6=O My Soul Arise And Bless Your Maker
TTITLE7=Surely Our God ( Revealer Of Mysteries )
TTITLE8=Giving It All To You
TTITLE9=In Christ Alone
TTITLE10=With All My Heart 
TTITLE11=The People Who Walk In Darkness ( He Will Be Called Wonderful )
TTITLE12=Sovereign Lord
TTITLE13=Lord I Come
TTITLE14=We Have Sung Our Songs Of Victory ( How Long )
TTITLE15=All The Way My Saviour Leads Me
EXTD=erhältlich unter www.gerth.de
EXTT0=
EXTT1=
EXTT2=
EXTT3=
EXTT4=
EXTT5=
EXTT6=
EXTT7=
EXTT8=
EXTT9=
EXTT10=
EXTT11=
EXTT12=
EXTT13=
EXTT14=
EXTT15=
PLAYORDER=
